<?xml version="1.0" encoding="utf-8"?>
<!-- Generator: Adobe Illustrator 16.0.0, SVG Export Plug-In . SVG Version: 6.00 Build 0)  -->
<!DOCTYPE svg PUBLIC "-//W3C//DTD SVG 1.1//EN" "http://www.w3.org/Graphics/SVG/1.1/DTD/svg11.dtd">
<svg version="1.1" id="Layer_1" xmlns="http://www.w3.org/2000/svg" xmlns:xlink="http://www.w3.org/1999/xlink" x="0px" y="0px"
	 width="284.793px" height="268.863px" viewBox="0 0 284.793 268.863" enable-background="new 0 0 284.793 268.863"
	 xml:space="preserve">
<polygon fill="#A7A9AC" stroke="#A7A9AC" stroke-miterlimit="10" points="257.396,268.115 0.5,268.115 0.5,11.219 128.086,140.529 
	"/>
<polygon fill="#2E3192" stroke="#2E3192" stroke-miterlimit="10" points="268.396,258.115 11.5,258.115 11.5,1.219 139.086,130.529 
	"/>
<g>
	<path fill="#FFFFFF" d="M34.296,182.75l1.752,0.393c-0.838,3.384-2.733,5.076-5.683,5.076c-1.939,0-3.461-0.783-4.565-2.349
		c-1.104-1.566-1.657-3.492-1.657-5.777c0-2.36,0.577-4.255,1.729-5.687c1.153-1.431,2.699-2.146,4.638-2.146
		c2.875,0,4.721,1.644,5.537,4.93l-1.808,0.359c-0.659-2.441-1.905-3.661-3.74-3.661c-1.355,0-2.405,0.567-3.15,1.701
		c-0.745,1.135-1.118,2.728-1.118,4.779c0,1.879,0.382,3.386,1.146,4.52c0.764,1.135,1.774,1.702,3.032,1.702
		C32.365,186.59,33.66,185.31,34.296,182.75z"/>
	<path fill="#FFFFFF" d="M44.062,188.219c-1.557,0-2.772-0.577-3.644-1.731c-0.873-1.154-1.309-2.585-1.309-4.294
		c0-1.806,0.49-3.249,1.471-4.328s2.201-1.619,3.661-1.619c1.565,0,2.798,0.568,3.701,1.703c0.902,1.135,1.353,2.554,1.353,4.255
		c0,1.769-0.487,3.213-1.46,4.333C46.863,187.659,45.605,188.219,44.062,188.219z M44.197,186.759c0.898,0,1.651-0.371,2.257-1.112
		s0.91-1.894,0.91-3.459c0-1.572-0.318-2.712-0.955-3.419c-0.636-0.708-1.381-1.062-2.235-1.062c-0.876,0-1.617,0.357-2.224,1.072
		c-0.606,0.715-0.91,1.848-0.91,3.397c0,1.64,0.303,2.813,0.91,3.521C42.558,186.405,43.306,186.759,44.197,186.759z"/>
	<path fill="#FFFFFF" d="M68.866,187.904h-1.718v-7.053c0-0.726-0.05-1.271-0.152-1.634c-0.101-0.363-0.346-0.696-0.735-1
		c-0.389-0.303-0.827-0.455-1.314-0.455c-0.674,0-1.323,0.309-1.949,0.926c-0.625,0.618-0.938,1.56-0.938,2.825v6.39h-1.707v-7.468
		c0-0.996-0.238-1.7-0.713-2.111c-0.476-0.412-0.976-0.618-1.5-0.618c-0.749,0-1.4,0.322-1.954,0.966s-0.831,1.46-0.831,2.448v6.783
		h-1.685v-11.343h1.516v2.179c0.846-1.662,2.01-2.493,3.493-2.493c0.816,0,1.509,0.266,2.078,0.797s0.936,1.172,1.101,1.92
		c0.779-1.812,1.973-2.718,3.583-2.718c0.771,0,1.447,0.221,2.027,0.663c0.581,0.442,0.958,0.949,1.135,1.522
		c0.176,0.572,0.264,1.379,0.264,2.42V187.904z"/>
	<path fill="#FFFFFF" d="M75.678,191.734h-1.763v-15.172h1.595v2.201c0.8-1.677,1.992-2.516,3.578-2.516
		c1.338,0,2.418,0.56,3.241,1.681c0.822,1.12,1.233,2.539,1.233,4.255c0,1.851-0.423,3.32-1.269,4.406s-1.932,1.63-3.257,1.63
		c-1.422,0-2.542-0.678-3.358-2.033V191.734z M75.678,180.593v3.201c0.112,0.858,0.476,1.566,1.089,2.125
		c0.614,0.56,1.254,0.839,1.92,0.839c0.771,0,1.454-0.337,2.05-1.011c0.595-0.674,0.893-1.838,0.893-3.493
		c0-1.43-0.27-2.533-0.809-3.307c-0.539-0.775-1.254-1.163-2.145-1.163c-0.704,0-1.334,0.273-1.892,0.82
		C76.227,179.152,75.858,179.814,75.678,180.593z"/>
	<path fill="#FFFFFF" d="M89.689,187.904h-1.763v-15.33h1.763V187.904z"/>
	<path fill="#FFFFFF" d="M96.76,172.575v1.965h-1.898v-1.965H96.76z M96.704,176.562v11.343h-1.763v-11.343H96.704z"/>
	<path fill="#FFFFFF" d="M110.816,187.904h-1.741c-0.067-0.359-0.135-1.041-0.202-2.044c-0.779,1.572-2.104,2.358-3.976,2.358
		c-1.273,0-2.25-0.337-2.931-1.012s-1.022-1.485-1.022-2.43c0-1.147,0.487-2.09,1.46-2.829s2.628-1.108,4.964-1.108
		c0.314,0,0.816,0.015,1.505,0.045c0-0.898-0.069-1.548-0.208-1.949c-0.138-0.4-0.432-0.72-0.881-0.96s-1.041-0.359-1.774-0.359
		c-1.79,0-2.83,0.681-3.122,2.044l-1.628-0.281c0.397-2.089,2.066-3.133,5.009-3.133c1.565,0,2.675,0.346,3.33,1.039
		c0.655,0.692,0.982,1.892,0.982,3.599v4.818C110.581,186.504,110.659,187.238,110.816,187.904z M108.874,182.233
		c-0.719-0.045-1.265-0.067-1.64-0.067c-1.393,0-2.475,0.229-3.246,0.687c-0.771,0.458-1.157,1.126-1.157,2.004
		c0,0.556,0.208,1.028,0.623,1.418c0.416,0.39,1.017,0.585,1.803,0.585c1.063,0,1.938-0.386,2.622-1.16
		c0.686-0.773,1.028-1.681,1.028-2.724C108.907,182.766,108.896,182.518,108.874,182.233z"/>
	<path fill="#FFFFFF" d="M124.771,187.904h-1.651v-7.289c0-1.048-0.229-1.786-0.685-2.212s-1.011-0.64-1.662-0.64
		c-0.898,0-1.653,0.359-2.263,1.078c-0.61,0.719-0.915,1.666-0.915,2.841v6.222h-1.763v-11.343h1.64v2.089
		c0.921-1.602,2.115-2.403,3.583-2.403c0.846,0,1.566,0.219,2.162,0.657c0.595,0.438,1.003,0.93,1.224,1.477
		c0.221,0.546,0.332,1.535,0.332,2.965V187.904z"/>
	<path fill="#FFFFFF" d="M136.727,183.929l1.595,0.281c-0.225,1.254-0.723,2.235-1.494,2.945c-0.771,0.71-1.733,1.064-2.886,1.064
		c-1.565,0-2.757-0.577-3.577-1.731c-0.819-1.154-1.229-2.563-1.229-4.227c0-1.723,0.433-3.157,1.297-4.299
		c0.865-1.143,2.042-1.714,3.532-1.714c1.235,0,2.226,0.369,2.971,1.106c0.745,0.737,1.207,1.69,1.387,2.858l-1.595,0.303
		c-0.299-1.872-1.203-2.808-2.712-2.808c-0.972,0-1.719,0.414-2.242,1.241c-0.523,0.827-0.785,1.899-0.785,3.217
		c0,1.453,0.26,2.581,0.779,3.386c0.52,0.805,1.25,1.207,2.191,1.207C135.416,186.759,136.338,185.815,136.727,183.929z"/>
	<path fill="#FFFFFF" d="M149.952,184.524l1.64,0.337c-0.299,0.969-0.883,1.771-1.752,2.406s-1.891,0.952-3.066,0.952
		c-1.55,0-2.804-0.545-3.762-1.635c-0.958-1.091-1.438-2.52-1.438-4.289c0-1.806,0.498-3.266,1.494-4.378s2.246-1.669,3.751-1.669
		c1.482,0,2.675,0.513,3.577,1.539c0.902,1.026,1.365,2.561,1.387,4.604h-8.243c0,1.714,0.359,2.871,1.078,3.47
		s1.479,0.898,2.28,0.898C148.342,186.759,149.361,186.014,149.952,184.524z M149.851,181.076c-0.015-0.636-0.12-1.202-0.314-1.696
		s-0.524-0.916-0.988-1.263c-0.464-0.349-1.022-0.522-1.673-0.522c-0.876,0-1.619,0.314-2.229,0.943
		c-0.61,0.629-0.953,1.475-1.027,2.538H149.851z"/>
	<path fill="#FFFFFF" d="M36.138,215.504h-2.013l-2.827-6.637h-4.392v6.637H25.11v-15.33h6.042c1.64,0,2.854,0.447,3.644,1.342
		c0.79,0.895,1.185,1.874,1.185,2.937c0,0.816-0.221,1.599-0.663,2.347s-1.172,1.284-2.19,1.606L36.138,215.504z M26.907,207.306
		h4.009c1.056,0,1.844-0.279,2.364-0.837c0.52-0.558,0.78-1.241,0.78-2.049s-0.275-1.438-0.825-1.887
		c-0.551-0.449-1.245-0.674-2.083-0.674h-4.245V207.306z"/>
	<path fill="#FFFFFF" d="M47.87,212.124l1.64,0.337c-0.299,0.969-0.883,1.771-1.752,2.406s-1.891,0.952-3.066,0.952
		c-1.55,0-2.804-0.545-3.762-1.635c-0.958-1.091-1.438-2.52-1.438-4.289c0-1.806,0.498-3.266,1.494-4.378s2.246-1.669,3.751-1.669
		c1.482,0,2.675,0.513,3.577,1.539c0.902,1.026,1.365,2.561,1.387,4.604h-8.243c0,1.714,0.359,2.871,1.078,3.47
		s1.479,0.898,2.28,0.898C46.26,214.359,47.278,213.614,47.87,212.124z M47.769,208.676c-0.015-0.636-0.12-1.202-0.314-1.696
		s-0.524-0.916-0.988-1.263c-0.464-0.349-1.022-0.522-1.673-0.522c-0.876,0-1.619,0.314-2.229,0.943
		c-0.61,0.629-0.953,1.475-1.027,2.538H47.769z"/>
	<path fill="#FFFFFF" d="M52.548,212.562l1.685-0.348c0.375,1.43,1.557,2.145,3.549,2.145c0.734,0,1.355-0.165,1.864-0.494
		c0.509-0.329,0.764-0.792,0.764-1.391c0-0.89-0.648-1.454-1.944-1.694l-2.391-0.454c-0.936-0.18-1.681-0.532-2.235-1.056
		s-0.831-1.217-0.831-2.078c0-0.951,0.378-1.746,1.134-2.387c0.756-0.64,1.774-0.96,3.055-0.96c2.463,0,3.983,0.962,4.56,2.886
		l-1.617,0.348c-0.464-1.183-1.419-1.774-2.864-1.774c-0.719,0-1.309,0.148-1.769,0.443c-0.461,0.296-0.691,0.709-0.691,1.24
		c0,0.837,0.588,1.365,1.764,1.582l2.212,0.397c2.313,0.42,3.47,1.541,3.47,3.363c0,1.042-0.431,1.884-1.292,2.525
		s-2.006,0.962-3.437,0.962C54.847,215.819,53.185,214.733,52.548,212.562z"/>
	<path fill="#FFFFFF" d="M75.397,215.504h-1.595v-2.167c-0.807,1.655-2.011,2.482-3.61,2.482c-1.159,0-2.069-0.382-2.731-1.146
		c-0.662-0.765-0.992-1.851-0.992-3.26v-7.25h1.763v7.244c0,1.123,0.234,1.896,0.702,2.319c0.468,0.423,0.982,0.635,1.544,0.635
		c0.569,0,1.084-0.161,1.544-0.483c0.461-0.322,0.844-0.781,1.151-1.375c0.307-0.596,0.46-1.245,0.46-1.949v-6.39h1.763V215.504z"/>
	<path fill="#FFFFFF" d="M82.412,215.504h-1.763v-15.33h1.763V215.504z"/>
	<path fill="#FFFFFF" d="M92.807,214.303v1.393c-0.622,0.083-1.161,0.124-1.617,0.124c-2.194,0-3.291-1.147-3.291-3.44v-6.835h-2.01
		v-1.381h2.01l0.079-2.853l1.64-0.157v3.01h2.538v1.381h-2.538v7.129c0,1.17,0.606,1.754,1.819,1.754
		C91.841,214.426,92.298,214.385,92.807,214.303z"/>
	<path fill="#FFFFFF" d="M94.937,212.562l1.685-0.348c0.375,1.43,1.557,2.145,3.549,2.145c0.734,0,1.355-0.165,1.864-0.494
		c0.509-0.329,0.764-0.792,0.764-1.391c0-0.89-0.648-1.454-1.944-1.694l-2.391-0.454c-0.936-0.18-1.681-0.532-2.235-1.056
		s-0.831-1.217-0.831-2.078c0-0.951,0.378-1.746,1.134-2.387c0.756-0.64,1.774-0.96,3.055-0.96c2.463,0,3.983,0.962,4.56,2.886
		l-1.617,0.348c-0.464-1.183-1.419-1.774-2.864-1.774c-0.719,0-1.309,0.148-1.769,0.443c-0.461,0.296-0.691,0.709-0.691,1.24
		c0,0.837,0.588,1.365,1.764,1.582l2.212,0.397c2.313,0.42,3.47,1.541,3.47,3.363c0,1.042-0.431,1.884-1.292,2.525
		s-2.006,0.962-3.437,0.962C97.235,215.819,95.573,214.733,94.937,212.562z"/>
	<path fill="#FFFFFF" d="M35.434,243.104h-1.961l-1.542-4.481h-5.688l-1.372,4.481h-1.606l4.981-15.33h2.172L35.434,243.104z
		 M31.522,237.186l-2.375-7.367l-2.372,7.367H31.522z"/>
	<path fill="#FFFFFF" d="M37.47,240.162l1.685-0.348c0.375,1.43,1.557,2.145,3.549,2.145c0.734,0,1.355-0.165,1.864-0.494
		c0.509-0.329,0.764-0.792,0.764-1.391c0-0.89-0.648-1.454-1.944-1.694l-2.391-0.454c-0.936-0.18-1.681-0.532-2.235-1.056
		s-0.831-1.217-0.831-2.078c0-0.951,0.378-1.746,1.134-2.387c0.756-0.64,1.774-0.96,3.055-0.96c2.463,0,3.983,0.962,4.56,2.886
		l-1.617,0.348c-0.464-1.183-1.419-1.774-2.864-1.774c-0.719,0-1.309,0.148-1.769,0.443c-0.461,0.296-0.691,0.709-0.691,1.24
		c0,0.837,0.588,1.365,1.764,1.582l2.212,0.397c2.313,0.42,3.47,1.541,3.47,3.363c0,1.042-0.431,1.884-1.292,2.525
		s-2.006,0.962-3.437,0.962C39.769,243.419,38.106,242.333,37.47,240.162z"/>
	<path fill="#FFFFFF" d="M49.864,240.162l1.685-0.348c0.375,1.43,1.557,2.145,3.549,2.145c0.734,0,1.355-0.165,1.864-0.494
		c0.509-0.329,0.764-0.792,0.764-1.391c0-0.89-0.648-1.454-1.944-1.694l-2.391-0.454c-0.936-0.18-1.681-0.532-2.235-1.056
		s-0.831-1.217-0.831-2.078c0-0.951,0.378-1.746,1.134-2.387c0.756-0.64,1.774-0.96,3.055-0.96c2.463,0,3.983,0.962,4.56,2.886
		l-1.617,0.348c-0.464-1.183-1.419-1.774-2.864-1.774c-0.719,0-1.309,0.148-1.769,0.443c-0.461,0.296-0.691,0.709-0.691,1.24
		c0,0.837,0.588,1.365,1.764,1.582l2.212,0.397c2.313,0.42,3.47,1.541,3.47,3.363c0,1.042-0.431,1.884-1.292,2.525
		s-2.006,0.962-3.437,0.962C52.163,243.419,50.5,242.333,49.864,240.162z"/>
	<path fill="#FFFFFF" d="M67.851,243.419c-1.557,0-2.772-0.577-3.644-1.731c-0.873-1.154-1.309-2.585-1.309-4.294
		c0-1.806,0.49-3.249,1.471-4.328s2.201-1.619,3.661-1.619c1.565,0,2.798,0.568,3.701,1.703c0.902,1.135,1.353,2.554,1.353,4.255
		c0,1.769-0.487,3.213-1.46,4.333C70.651,242.859,69.393,243.419,67.851,243.419z M67.985,241.959c0.898,0,1.651-0.371,2.257-1.112
		s0.91-1.894,0.91-3.459c0-1.572-0.318-2.712-0.955-3.419c-0.636-0.708-1.381-1.062-2.235-1.062c-0.876,0-1.617,0.357-2.224,1.072
		c-0.606,0.715-0.91,1.848-0.91,3.397c0,1.64,0.303,2.813,0.91,3.521C66.346,241.605,67.094,241.959,67.985,241.959z"/>
	<path fill="#FFFFFF" d="M84.164,239.129l1.595,0.281c-0.225,1.254-0.723,2.235-1.494,2.945c-0.771,0.71-1.733,1.064-2.886,1.064
		c-1.565,0-2.757-0.577-3.577-1.731c-0.819-1.154-1.229-2.563-1.229-4.227c0-1.723,0.433-3.157,1.297-4.299
		c0.865-1.143,2.042-1.714,3.532-1.714c1.235,0,2.226,0.369,2.971,1.106c0.745,0.737,1.207,1.69,1.387,2.858l-1.595,0.303
		c-0.299-1.872-1.203-2.808-2.712-2.808c-0.972,0-1.719,0.414-2.242,1.241c-0.523,0.827-0.785,1.899-0.785,3.217
		c0,1.453,0.26,2.581,0.779,3.386c0.52,0.805,1.25,1.207,2.191,1.207C82.853,241.959,83.775,241.016,84.164,239.129z"/>
	<path fill="#FFFFFF" d="M91.718,227.775v1.965H89.82v-1.965H91.718z M91.662,231.762v11.343h-1.763v-11.343H91.662z"/>
	<path fill="#FFFFFF" d="M105.774,243.104h-1.741c-0.067-0.359-0.135-1.041-0.202-2.044c-0.779,1.572-2.104,2.358-3.976,2.358
		c-1.273,0-2.25-0.337-2.931-1.012s-1.022-1.485-1.022-2.43c0-1.147,0.487-2.09,1.46-2.829s2.628-1.108,4.964-1.108
		c0.314,0,0.816,0.015,1.505,0.045c0-0.898-0.069-1.548-0.208-1.949c-0.138-0.4-0.432-0.72-0.881-0.96s-1.041-0.359-1.774-0.359
		c-1.79,0-2.83,0.681-3.122,2.044l-1.628-0.281c0.397-2.089,2.066-3.133,5.009-3.133c1.565,0,2.675,0.346,3.33,1.039
		c0.655,0.692,0.982,1.892,0.982,3.599v4.818C105.538,241.705,105.617,242.438,105.774,243.104z M103.831,237.433
		c-0.719-0.045-1.265-0.067-1.64-0.067c-1.393,0-2.475,0.229-3.246,0.687c-0.771,0.458-1.157,1.126-1.157,2.004
		c0,0.556,0.208,1.028,0.623,1.418c0.416,0.39,1.017,0.585,1.803,0.585c1.063,0,1.938-0.386,2.622-1.16
		c0.686-0.773,1.028-1.681,1.028-2.724C103.865,237.966,103.854,237.718,103.831,237.433z"/>
	<path fill="#FFFFFF" d="M115.933,241.903v1.393c-0.622,0.083-1.161,0.124-1.617,0.124c-2.194,0-3.291-1.147-3.291-3.44v-6.835
		h-2.01v-1.381h2.01l0.079-2.853l1.64-0.157v3.01h2.538v1.381h-2.538v7.129c0,1.17,0.606,1.754,1.819,1.754
		C114.967,242.026,115.424,241.985,115.933,241.903z"/>
	<path fill="#FFFFFF" d="M126.687,239.724l1.64,0.337c-0.299,0.969-0.883,1.771-1.752,2.406s-1.891,0.952-3.066,0.952
		c-1.55,0-2.804-0.545-3.762-1.635c-0.958-1.091-1.438-2.52-1.438-4.289c0-1.806,0.498-3.266,1.494-4.378s2.246-1.669,3.751-1.669
		c1.482,0,2.675,0.513,3.577,1.539c0.902,1.026,1.365,2.561,1.387,4.604h-8.243c0,1.714,0.359,2.871,1.078,3.47
		s1.479,0.898,2.28,0.898C125.077,241.959,126.096,241.214,126.687,239.724z M126.586,236.276c-0.015-0.636-0.12-1.202-0.314-1.696
		s-0.524-0.916-0.988-1.263c-0.464-0.349-1.022-0.522-1.673-0.522c-0.876,0-1.619,0.314-2.229,0.943
		c-0.61,0.629-0.953,1.475-1.027,2.538H126.586z"/>
	<path fill="#FFFFFF" d="M131.366,240.162l1.685-0.348c0.375,1.43,1.557,2.145,3.549,2.145c0.734,0,1.355-0.165,1.864-0.494
		c0.509-0.329,0.764-0.792,0.764-1.391c0-0.89-0.648-1.454-1.944-1.694l-2.391-0.454c-0.936-0.18-1.681-0.532-2.235-1.056
		s-0.831-1.217-0.831-2.078c0-0.951,0.378-1.746,1.134-2.387c0.756-0.64,1.774-0.96,3.055-0.96c2.463,0,3.983,0.962,4.56,2.886
		l-1.617,0.348c-0.464-1.183-1.419-1.774-2.864-1.774c-0.719,0-1.309,0.148-1.769,0.443c-0.461,0.296-0.691,0.709-0.691,1.24
		c0,0.837,0.588,1.365,1.764,1.582l2.212,0.397c2.313,0.42,3.47,1.541,3.47,3.363c0,1.042-0.431,1.884-1.292,2.525
		s-2.006,0.962-3.437,0.962C133.664,243.419,132.002,242.333,131.366,240.162z"/>
</g>
<g>
	<path fill="#2E3192" d="M267.427,268.781h-0.961v-5.332h2.184c0.623,0,1.084,0.157,1.385,0.471s0.451,0.684,0.451,1.111
		c0,0.487-0.163,0.881-0.488,1.184s-0.738,0.453-1.238,0.453h-1.332V268.781z M267.427,265.844h1.137
		c0.297,0,0.523-0.073,0.68-0.219s0.234-0.34,0.234-0.582c0-0.219-0.072-0.406-0.217-0.562s-0.406-0.234-0.783-0.234h-1.051V265.844
		z"/>
	<path fill="#2E3192" d="M275.14,268.781h-3.281v-5.332h1.012v4.461h2.27V268.781z"/>
	<path fill="#2E3192" d="M279.729,268.781h-3.281v-5.332h1.012v4.461h2.27V268.781z"/>
	<path fill="#2E3192" d="M283.902,266.93l0.891,0.098c-0.057,0.534-0.264,0.973-0.619,1.318s-0.822,0.518-1.4,0.518
		c-0.487,0-0.882-0.123-1.186-0.367s-0.537-0.577-0.701-0.996s-0.246-0.881-0.246-1.387c0-0.812,0.193-1.473,0.578-1.982
		s0.916-0.764,1.59-0.764c0.529,0,0.969,0.163,1.32,0.488s0.573,0.792,0.664,1.398l-0.891,0.094
		c-0.164-0.805-0.526-1.207-1.086-1.207c-0.359,0-0.639,0.167-0.838,0.502s-0.299,0.82-0.299,1.455c0,0.646,0.107,1.133,0.32,1.463
		s0.496,0.494,0.848,0.494c0.281,0,0.521-0.111,0.719-0.332S283.876,267.237,283.902,266.93z"/>
</g>
</svg>
